<svg xmlns="http://www.w3.org/2000/svg" xmlns:xlink="http://www.w3.org/1999/xlink" width="984" height="1060" viewBox="0 0 984 1060">
  <defs>
    <clipPath id="clip-path">
      <rect id="Rectangle_48" data-name="Rectangle 48" width="984" height="1060" transform="translate(45.929 21.112)" fill="#fff" stroke="#707070" stroke-width="1"/>
    </clipPath>
    <linearGradient id="linear-gradient" x1="1.087" x2="0" y2="1" gradientUnits="objectBoundingBox">
      <stop offset="0" stop-color="#fea730"/>
      <stop offset="1" stop-color="#f7465c"/>
    </linearGradient>
    <linearGradient id="linear-gradient-2" x1="0.833" y1="0.063" x2="0.046" xlink:href="#linear-gradient"/>
  </defs>
  <g id="Mask_Group_1" data-name="Mask Group 1" transform="translate(-45.929 -21.112)" clip-path="url(#clip-path)">
    <g id="Group_1" data-name="Group 1" transform="translate(34.727 -82.677)">
      <path id="Path_29" data-name="Path 29" d="M143.851-53.179V-95.7H7.923V71.521H64.3V18.01h69.756V-24.513H64.3V-53.179ZM274.763,25.654a52.493,52.493,0,0,1-20.545,4.061c-24.128,0-39.895-16.722-39.895-41.806,0-25.8,15.767-41.806,40.611-41.806,14.811,0,26.995,6.211,37.506,18.395l36.072-31.772c-16.961-20.784-43.478-32.25-76.445-32.25-55.184,0-94.6,36.072-94.6,87.434s39.417,87.434,93.406,87.434c24.606,0,52.556-7.406,72.861-21.261V-16.629H274.763Z" transform="translate(29.535 1072.213)" fill="url(#linear-gradient)"/>
      <path id="Path_32" data-name="Path 32" d="M145.586,33.43C145.586-10,112.958-33,74.931-33,33.383-33,2.163-5.536,2.163,33.43c0,38.262,30.516,66.665,77.7,66.665,25.586,0,43.661-7.042,56.1-20.657L108.263,51.5c-8.45,6.338-15.023,9.389-26.76,9.389-13.145,0-22.065-5.164-25.821-15.023h89.2C145.117,42.115,145.586,37.186,145.586,33.43ZM75.4,3.149c10.8,0,18.544,6.338,20.657,17.135H54.744C56.856,9.487,64.368,3.149,75.4,3.149Zm228.632,94.6-48.355-65.96,47.182-62.439H247.226L227.978-3.424,209.669-30.653H149.811l47.182,64.787L148.4,97.747h57.51l19.718-27.464,17.605,27.464Zm78.636,2.347c31.22,0,54.693-14.319,63.144-38.027L404.733,41.88c-5.4,11.972-13.145,16.9-22.3,16.9-11.972,0-21.83-8.45-21.83-25.351,0-16.666,9.859-25.117,21.83-25.117,9.155,0,16.9,4.929,22.3,16.9L445.812,5.027C437.361-18.681,413.888-33,382.668-33,338.3-33,306.849-5.536,306.849,33.43,306.849,72.631,338.3,100.095,382.668,100.095ZM550.738-33c-13.849,0-26.29,4.225-36.149,12.676v-56.1h-53.05V97.747h53.05V37.42c0-19.014,9.155-25.821,19.953-25.821,9.624,0,15.727,6.1,15.727,22.065V97.747h53.05V24.51C603.319-15.864,580.315-33,550.738-33Z" transform="translate(377.206 1041.863)" fill="#fff"/>
      <path id="Path_33" data-name="Path 33" d="M436.6,477.022a239.482,239.482,0,0,1-86.159-36.259,241.658,241.658,0,0,1-87.3-106.009c-.268-.625-.526-1.26-.784-1.885H106.039l47.39,47.39a54.8,54.8,0,0,1-77.478,0L1.518,305.826l.109-.109C1.071,305.211.536,304.7,0,304.159L111.228,192.932a56.56,56.56,0,0,1,2.307,77.531,63.533,63.533,0,0,1,8.12-.519H245.937c-.01-.05-.01-.089-.02-.139,6.984,0,17.063.01,25.654.01,9.752,0,15.595-.01,18.4-.01H290a14.823,14.823,0,0,1,7.143,2.044,29.276,29.276,0,0,1,5.972,4.514,43.556,43.556,0,0,1,5.605,6.547l.089-.615A178.674,178.674,0,0,0,334.685,341.3a180.18,180.18,0,0,0,48.471,48.471,178.44,178.44,0,0,0,64.175,27,181,181,0,0,0,72.339,0,178.637,178.637,0,0,0,64.175-27,179.234,179.234,0,0,0,73.808-105.305l.02.1a.031.031,0,0,1,.01-.02,45.361,45.361,0,0,1,5.6-6.538,29.947,29.947,0,0,1,5.972-4.5,14.823,14.823,0,0,1,7.143-2.044h.03c2.956,0,9.166.01,18.462.01,10.714,0,22.966-.01,29.315-.01-.764,6.061-1.766,12.133-2.976,18.065a240.835,240.835,0,0,1-187.505,187.5,243.525,243.525,0,0,1-97.121,0Zm1.825-125.434a120,120,0,0,1-20.4-11.071,120.424,120.424,0,0,1-43.5-52.826,120.473,120.473,0,0,1,0-93.47,120.424,120.424,0,0,1,63.9-63.9,120.474,120.474,0,0,1,93.47,0,120.147,120.147,0,0,1,32.45,20.377h74.314q-3.006-5.149-6.339-10.089A179.917,179.917,0,0,0,553.35,75.593a178.494,178.494,0,0,0-33.68-10.456,181,181,0,0,0-72.339,0,178.439,178.439,0,0,0-64.175,27,180.179,180.179,0,0,0-48.471,48.471,178.758,178.758,0,0,0-24.8,54.7,12.933,12.933,0,0,0-2.51,3.393c-3.581,6.538-7.083,9.821-9.395,11.428a10.409,10.409,0,0,1-4.2,1.934c-.119.01-12.807.853-25.357.853-3.264,0-6.24-.06-8.869-.179-3.363-.149-7.966-.238-13.69-.268.794-6.736,1.875-13.492,3.224-20.079a239.948,239.948,0,0,1,36.259-86.159,241.588,241.588,0,0,1,106.019-87.3A239.8,239.8,0,0,1,436.6,4.891a243.523,243.523,0,0,1,97.121,0A240.664,240.664,0,0,1,655.54,70.574a241.5,241.5,0,0,1,51.646,76.6c.5,1.171.982,2.351,1.458,3.532H847.877l-2.411-2.411a56.54,56.54,0,0,1,0-79.978L956.694,179.539c-.536.536-1.071,1.052-1.627,1.558l.1.1-74.433,74.443a54.786,54.786,0,0,1-77.468,0l42-42H602.109A120.147,120.147,0,0,1,438.422,351.589Zm22.42-166.226a60.324,60.324,0,1,0,79.085,32.112q-.833-1.964-1.786-3.839h-.813v-1.548a60.409,60.409,0,0,0-76.486-26.726Z" transform="matrix(0.755, -0.656, 0.656, 0.755, 0, 627.647)" fill="url(#linear-gradient-2)"/>
    </g>
  </g>
</svg>
