<?xml version="1.0" encoding="utf-8"?>
<!-- Generator: Adobe Illustrator 27.3.1, SVG Export Plug-In . SVG Version: 6.00 Build 0)  -->
<svg version="1.1" id="Layer_1" xmlns="http://www.w3.org/2000/svg" xmlns:xlink="http://www.w3.org/1999/xlink" x="0px" y="0px"
	 viewBox="0 0 256 256" style="enable-background:new 0 0 256 256;" xml:space="preserve">
<style type="text/css">
	.st0{fill:#FFFFFF;}
	.st1{fill:#FBB315;}
	.st2{fill:#292B2D;}
</style>
<path d="M170.13,206.3H85.87c-31.2,0-56.49-25.29-56.49-56.49V65.54c0-31.2,25.29-56.49,56.49-56.49h84.26
	c31.2,0,56.49,25.29,56.49,56.49v84.26C226.63,181,201.33,206.3,170.13,206.3z"/>
<g>
	<g>
		<path class="st0" d="M90.42,56.84c0,0-8.76,3.08-19.46-3.41c-10.7-6.49-24.32-4.54-24.97-4.38c-0.65,0.16,0.65-0.16,0.65-0.16
			s12.32,0.97,12.49,23.51c0.16,22.54,10.7,25.62,27.24,31.62c0,0-13.95-7.46-16.38-23.19c-2.43-15.73-6.16-22.7-6.97-23.35
			C63.02,57.49,73.56,74.68,90.42,56.84z"/>
		<path class="st0" d="M156.73,56.84c0,0,8.76,3.08,19.46-3.41c10.7-6.49,24.32-4.54,24.97-4.38c0.65,0.16-0.65-0.16-0.65-0.16
			s-12.32,0.97-12.49,23.51c-0.16,22.54-10.7,25.62-27.24,31.62c0,0,13.95-7.46,16.38-23.19c2.43-15.73,6.16-22.7,6.97-23.35
			C184.13,57.49,173.59,74.68,156.73,56.84z"/>
		<g>
			<path class="st0" d="M101.29,69.81c0,0,11.68-3.89,16.38,9.41C118.64,81.65,121.23,62.03,101.29,69.81z"/>
			<path class="st0" d="M114.75,85.95c0,0-0.57-7.95-6.16-9.49c-5.59-1.54-7.3-0.97-9.65-3.65c0,0,0.97,3.49,5.11,4.3
				c4.14,0.81,8.11,2.19,9.24,7.62c0,0-6.49,2.27-10.3-4.95C102.99,79.78,104.69,89.92,114.75,85.95z"/>
			<path class="st0" d="M112,80.67c-0.58-0.63-0.96-1.25-1.35-1.96c-0.01-0.01-0.03-0.02-0.04-0.03c-0.19-0.15-0.34-0.27-0.47-0.38
				c-0.03-0.01-0.07-0.02-0.12-0.04c0.03,0.02,0.05,0.04,0.08,0.06c-0.07-0.04-0.14-0.08-0.21-0.11c-0.01,0-0.01-0.01-0.02-0.01
				c-0.27-0.08-1.45-0.24-0.25-0.17c-0.23-0.02-0.47-0.03-0.71-0.02c-1.09,0.02-2.09-0.36-2.91-1c-0.46,0.64-0.74,1.43-0.74,2.28
				c0,2.15,1.74,3.89,3.89,3.89c1.47,0,2.75-0.82,3.41-2.02C112.37,81.02,112.18,80.85,112,80.67z"/>
		</g>
		<g>
			<path class="st0" d="M145.34,69.81c0,0-11.68-3.89-16.38,9.41C127.98,81.65,125.39,62.03,145.34,69.81z"/>
			<path class="st0" d="M131.88,85.95c0,0,0.57-7.95,6.16-9.49c5.59-1.54,7.3-0.97,9.65-3.65c0,0-0.97,3.49-5.11,4.3
				c-4.14,0.81-8.11,2.19-9.24,7.62c0,0,6.49,2.27,10.3-4.95C143.63,79.78,141.93,89.92,131.88,85.95z"/>
			<path class="st0" d="M134.62,80.67c0.58-0.63,0.96-1.25,1.35-1.96c0.01-0.01,0.03-0.02,0.04-0.03c0.19-0.15,0.34-0.27,0.47-0.38
				c0.03-0.01,0.07-0.02,0.12-0.04c-0.03,0.02-0.05,0.04-0.07,0.06c0.07-0.04,0.14-0.08,0.21-0.11c0.01,0,0.01-0.01,0.02-0.01
				c0.27-0.08,1.45-0.24,0.25-0.17c0.23-0.02,0.47-0.03,0.7-0.02c1.09,0.02,2.09-0.36,2.91-1c0.47,0.64,0.74,1.43,0.74,2.28
				c0,2.15-1.74,3.89-3.89,3.89c-1.47,0-2.75-0.82-3.41-2.02C134.26,81.02,134.45,80.85,134.62,80.67z"/>
		</g>
		<path class="st0" d="M81.53,127.73h0.11c0-0.19-0.01-0.39-0.01-0.58c0-3.35,0.74-6.65,2.23-9.9c1.48-3.25,3.48-5.97,6-8.16
			c0.2-0.18,0.41-0.35,0.61-0.52c-2.63-4.11-4.33-8.59-5.39-12.12c-1.91,1.3-3.74,2.8-5.48,4.5c-7.48,7.28-11.23,16.17-11.23,26.67
			c0,10.37,3.77,19.13,11.32,26.29c7.55,7.15,16.51,10.73,26.9,10.73c4.03,0,7.85-0.53,11.45-1.6c-0.25,0.01-0.51,0.01-0.76,0.01
			C97.68,163.06,81.76,147.28,81.53,127.73z"/>
		<path class="st0" d="M198.78,116.09c-5.45-5.62-12.11-8.44-19.98-8.44c-8.07,0-14.9,2.77-20.52,8.3
			c-5.61,5.53-8.42,12.31-8.42,20.35c0,7.78,2.79,14.45,8.37,20.01c5.58,5.56,12.24,8.34,19.98,8.34c7.94,0,14.71-2.76,20.32-8.29
			c5.61-5.53,8.42-12.22,8.42-20.06C206.96,128.45,204.23,121.71,198.78,116.09z M189.62,147.55c-2.98,3.02-6.76,4.52-11.36,4.52
			c-4.34,0-8.01-1.55-11.02-4.66c-3.01-3.11-4.51-6.81-4.51-11.11c0-4.17,1.57-7.87,4.71-11.11c3.14-3.24,6.75-4.86,10.82-4.86
			c4.46,0,8.22,1.57,11.26,4.71c3.04,3.14,4.56,6.89,4.56,11.25C194.08,140.78,192.6,144.53,189.62,147.55z"/>
	</g>
</g>
<g>
	<rect x="132.1" y="126.5" class="st1" width="12.7" height="38.77"/>
	<g>
		<path class="st1" d="M109.48,120.13c1.6,0.97,3.95,2.27,6.47,3.89h17.19c-0.83-0.72-1.73-1.44-2.69-2.17
			c-9.11-6.88-41.04-18.86-38.11-61.01C92.34,60.84,75.28,98.64,109.48,120.13z"/>
		<path class="st1" d="M154.11,112.89c-2.16-3.96-3.21-8.56-1.74-15.68c4.22-20.43,7.14-29.19-3.57-42.16c0,0,5.84,12.65-1.62,35.35
			c-5.6,17.05-2.79,23.13,1.98,29.22C150.51,117.19,152.17,114.92,154.11,112.89z"/>
		<path class="st1" d="M109.13,139h18.86c-1.94,3.78-4.87,6.85-8.81,9.22c-3.94,2.37-8,3.55-12.19,3.55
			c-5.36,0-10.11-1.44-14.24-4.33c5.82,7.09,14.65,11.61,24.54,11.61c5.24,0,10.18-1.27,14.54-3.52c0.55-0.47,1.1-0.95,1.63-1.45
			c7.51-7.05,11.27-15.72,11.27-26.01v-1.54h-35.6V139z"/>
		<g>
			<path class="st1" d="M122.44,47.8c8.47,0,15.69,3.97,18.5,9.55c-1.08-7.36-9.29-13.08-19.26-13.08
				c-10.7,0-19.38,6.59-19.38,14.73c0,1.02,0.14,2.01,0.4,2.98C103.09,54.09,111.78,47.8,122.44,47.8z"/>
			<path class="st1" d="M118.97,36.41c6.6,0,12.23,3.51,14.42,8.43c-0.84-6.49-7.24-11.54-15.01-11.54c-8.34,0-15.1,5.82-15.1,13
				c0,0.9,0.11,1.78,0.31,2.63C103.89,41.97,110.66,36.41,118.97,36.41z"/>
			<path class="st1" d="M115.65,26.55c4.99,0,9.25,2.65,10.9,6.38c-0.64-4.91-5.47-8.73-11.35-8.73c-6.31,0-11.42,4.4-11.42,9.83
				c0,0.68,0.08,1.34,0.23,1.99C104.24,30.75,109.36,26.55,115.65,26.55z"/>
		</g>
	</g>
</g>
<g>
	<g>
		<path class="st2" d="M38.63,244.48c-2.42,0-4.47-0.45-6.16-1.36s-2.98-2.18-3.88-3.83c-0.89-1.65-1.4-3.59-1.5-5.81
			c-0.03-1.21-0.04-2.49-0.04-3.85s0.01-2.66,0.04-3.9c0.11-2.23,0.61-4.15,1.5-5.77c0.89-1.62,2.19-2.89,3.9-3.79
			c1.7-0.91,3.75-1.36,6.14-1.36c1.95,0,3.64,0.27,5.07,0.82c1.43,0.55,2.6,1.24,3.52,2.08c0.92,0.84,1.61,1.71,2.06,2.62
			c0.45,0.91,0.69,1.7,0.72,2.39c0.03,0.25-0.04,0.45-0.21,0.6s-0.39,0.23-0.66,0.23h-2.43c-0.27,0-0.47-0.05-0.6-0.17
			c-0.12-0.11-0.24-0.3-0.35-0.58c-0.25-0.71-0.65-1.42-1.22-2.1c-0.56-0.69-1.32-1.26-2.27-1.71c-0.95-0.45-2.16-0.68-3.65-0.68
			c-2.17,0-3.92,0.59-5.26,1.77s-2.05,3.13-2.16,5.85c-0.08,2.45-0.08,4.89,0,7.34c0.11,2.75,0.84,4.72,2.19,5.92
			c1.35,1.2,3.1,1.79,5.28,1.79c1.46,0,2.75-0.27,3.9-0.8c1.14-0.54,2.04-1.37,2.7-2.49c0.66-1.13,0.99-2.56,0.99-4.29v-1.73h-6.18
			c-0.27,0-0.5-0.09-0.68-0.27c-0.18-0.18-0.27-0.42-0.27-0.72v-1.32c0-0.3,0.09-0.54,0.27-0.72c0.18-0.18,0.41-0.27,0.68-0.27h9.32
			c0.3,0,0.54,0.09,0.7,0.27s0.25,0.42,0.25,0.72v3.96c0,2.25-0.46,4.22-1.38,5.89c-0.92,1.68-2.26,2.98-4.02,3.9
			C43.18,244.02,41.08,244.48,38.63,244.48z"/>
		<path class="st2" d="M64.48,244.48c-2.09,0-3.83-0.4-5.23-1.2c-1.4-0.8-2.47-1.9-3.22-3.32c-0.74-1.42-1.15-3.03-1.24-4.84
			c-0.03-0.47-0.04-1.06-0.04-1.79c0-0.73,0.01-1.31,0.04-1.75c0.08-1.84,0.5-3.46,1.26-4.86c0.76-1.4,1.83-2.5,3.24-3.3
			c1.4-0.8,3.13-1.2,5.19-1.2c2.06,0,3.79,0.4,5.19,1.2c1.4,0.8,2.48,1.9,3.24,3.3c0.76,1.4,1.17,3.02,1.26,4.86
			c0.03,0.44,0.04,1.02,0.04,1.75c0,0.73-0.01,1.33-0.04,1.79c-0.08,1.81-0.49,3.43-1.24,4.84c-0.74,1.42-1.81,2.52-3.22,3.32
			C68.31,244.09,66.56,244.48,64.48,244.48z M64.48,241.31c1.7,0,3.06-0.54,4.08-1.63c1.02-1.08,1.57-2.67,1.65-4.76
			c0.03-0.41,0.04-0.93,0.04-1.57c0-0.63-0.01-1.15-0.04-1.57c-0.08-2.09-0.63-3.67-1.65-4.76c-1.02-1.09-2.38-1.63-4.08-1.63
			c-1.7,0-3.07,0.54-4.1,1.63c-1.03,1.09-1.57,2.67-1.63,4.76c-0.03,0.41-0.04,0.93-0.04,1.57c0,0.63,0.01,1.15,0.04,1.57
			c0.05,2.09,0.6,3.68,1.63,4.76C61.41,240.77,62.77,241.31,64.48,241.31z"/>
		<path class="st2" d="M100.46,244.48c-2.42,0-4.47-0.45-6.16-1.36s-2.98-2.18-3.88-3.83c-0.89-1.65-1.4-3.59-1.5-5.81
			c-0.03-1.21-0.04-2.49-0.04-3.85s0.01-2.66,0.04-3.9c0.11-2.23,0.61-4.15,1.5-5.77c0.89-1.62,2.19-2.89,3.9-3.79
			c1.7-0.91,3.75-1.36,6.14-1.36c1.95,0,3.64,0.27,5.07,0.82c1.43,0.55,2.6,1.24,3.52,2.08c0.92,0.84,1.61,1.71,2.06,2.62
			c0.45,0.91,0.69,1.7,0.72,2.39c0.03,0.25-0.04,0.45-0.21,0.6s-0.39,0.23-0.66,0.23h-2.43c-0.27,0-0.47-0.05-0.6-0.17
			c-0.12-0.11-0.24-0.3-0.35-0.58c-0.25-0.71-0.65-1.42-1.22-2.1c-0.56-0.69-1.32-1.26-2.27-1.71c-0.95-0.45-2.16-0.68-3.65-0.68
			c-2.17,0-3.92,0.59-5.26,1.77s-2.05,3.13-2.16,5.85c-0.08,2.45-0.08,4.89,0,7.34c0.11,2.75,0.84,4.72,2.19,5.92
			c1.35,1.2,3.1,1.79,5.28,1.79c1.46,0,2.75-0.27,3.9-0.8c1.14-0.54,2.04-1.37,2.7-2.49c0.66-1.13,0.99-2.56,0.99-4.29v-1.73h-6.18
			c-0.27,0-0.5-0.09-0.68-0.27c-0.18-0.18-0.27-0.42-0.27-0.72v-1.32c0-0.3,0.09-0.54,0.27-0.72c0.18-0.18,0.41-0.27,0.68-0.27h9.32
			c0.3,0,0.54,0.09,0.7,0.27s0.25,0.42,0.25,0.72v3.96c0,2.25-0.46,4.22-1.38,5.89c-0.92,1.68-2.26,2.98-4.02,3.9
			C105.01,244.02,102.91,244.48,100.46,244.48z"/>
		<path class="st2" d="M123.51,244.48c-1.37,0-2.62-0.28-3.75-0.82c-1.13-0.55-2.03-1.29-2.72-2.23c-0.69-0.93-1.03-1.99-1.03-3.17
			c0-1.9,0.77-3.41,2.31-4.53s3.55-1.87,6.02-2.23l6.14-0.87v-1.2c0-1.32-0.38-2.35-1.13-3.09s-1.99-1.11-3.69-1.11
			c-1.24,0-2.23,0.25-2.99,0.74c-0.76,0.5-1.29,1.13-1.59,1.9c-0.17,0.41-0.45,0.62-0.87,0.62h-1.85c-0.3,0-0.53-0.09-0.68-0.27
			c-0.15-0.18-0.23-0.39-0.23-0.64c0-0.41,0.16-0.92,0.47-1.52s0.8-1.2,1.46-1.77c0.66-0.58,1.5-1.06,2.54-1.46
			c1.03-0.4,2.29-0.6,3.77-0.6c1.65,0,3.04,0.21,4.16,0.64c1.13,0.43,2.01,1,2.66,1.71c0.64,0.71,1.11,1.53,1.4,2.43
			c0.29,0.91,0.43,1.83,0.43,2.76v13.36c0,0.28-0.09,0.5-0.27,0.68c-0.18,0.18-0.41,0.27-0.68,0.27h-1.9c-0.3,0-0.54-0.09-0.7-0.27
			s-0.25-0.41-0.25-0.68v-1.77c-0.36,0.5-0.84,0.98-1.44,1.46s-1.36,0.88-2.27,1.2C125.94,244.33,124.83,244.48,123.51,244.48z
			 M124.37,241.39c1.13,0,2.16-0.24,3.09-0.72c0.93-0.48,1.67-1.23,2.21-2.25s0.8-2.29,0.8-3.83v-1.15l-4.78,0.7
			c-1.95,0.28-3.42,0.74-4.41,1.38c-0.99,0.65-1.48,1.46-1.48,2.45c0,0.77,0.23,1.41,0.68,1.92c0.45,0.51,1.03,0.89,1.73,1.13
			C122.91,241.27,123.63,241.39,124.37,241.39z"/>
		<path class="st2" d="M141.23,244.07c-0.28,0-0.5-0.09-0.68-0.27s-0.27-0.41-0.27-0.68v-19.54c0-0.27,0.09-0.5,0.27-0.68
			c0.18-0.18,0.41-0.27,0.68-0.27h1.94c0.27,0,0.5,0.09,0.68,0.27c0.18,0.18,0.27,0.41,0.27,0.68v1.81c0.71-0.93,1.61-1.7,2.7-2.29
			c1.09-0.59,2.48-0.89,4.18-0.89c1.79,0,3.3,0.39,4.55,1.17c1.25,0.78,2.19,1.87,2.82,3.26c0.63,1.39,0.95,3,0.95,4.84v11.62
			c0,0.28-0.08,0.5-0.25,0.68s-0.38,0.27-0.66,0.27h-2.06c-0.27,0-0.5-0.09-0.68-0.27c-0.18-0.18-0.27-0.41-0.27-0.68v-11.42
			c0-1.92-0.47-3.43-1.4-4.51c-0.93-1.08-2.31-1.63-4.12-1.63c-1.7,0-3.07,0.54-4.1,1.63c-1.03,1.09-1.55,2.59-1.55,4.51v11.42
			c0,0.28-0.09,0.5-0.27,0.68c-0.18,0.18-0.41,0.27-0.68,0.27H141.23z"/>
		<path class="st2" d="M173.8,244.48c-2.83,0-5.08-0.87-6.76-2.62c-1.68-1.75-2.6-4.13-2.76-7.15c-0.03-0.36-0.04-0.82-0.04-1.38
			s0.01-1.02,0.04-1.38c0.11-1.95,0.56-3.66,1.36-5.13c0.8-1.47,1.89-2.6,3.28-3.4c1.39-0.8,3.02-1.2,4.88-1.2
			c2.09,0,3.84,0.44,5.26,1.32s2.49,2.13,3.24,3.75c0.74,1.62,1.11,3.52,1.11,5.69v0.7c0,0.3-0.09,0.54-0.27,0.7
			s-0.41,0.25-0.68,0.25h-14.26c0,0.03,0,0.08,0,0.16c0,0.08,0,0.15,0,0.21c0.05,1.13,0.3,2.18,0.74,3.15s1.07,1.77,1.9,2.37
			s1.81,0.91,2.97,0.91c0.99,0,1.81-0.15,2.47-0.45c0.66-0.3,1.2-0.64,1.61-1.01s0.69-0.65,0.83-0.84c0.25-0.36,0.44-0.57,0.58-0.64
			c0.14-0.07,0.36-0.1,0.66-0.1h1.98c0.27,0,0.5,0.08,0.68,0.23c0.18,0.15,0.25,0.36,0.23,0.64c-0.03,0.41-0.25,0.91-0.66,1.5
			s-1,1.17-1.77,1.75s-1.7,1.05-2.8,1.42C176.49,244.3,175.23,244.48,173.8,244.48z M168.19,231.79h11.29v-0.12
			c0-1.24-0.23-2.33-0.68-3.3c-0.45-0.96-1.11-1.72-1.96-2.29c-0.85-0.56-1.87-0.85-3.05-0.85s-2.19,0.28-3.03,0.85
			c-0.84,0.56-1.48,1.33-1.92,2.29c-0.44,0.96-0.66,2.06-0.66,3.3V231.79z"/>
		<path class="st2" d="M195.77,244.48c-1.54,0-2.86-0.19-3.96-0.58c-1.1-0.38-1.99-0.85-2.68-1.4c-0.69-0.55-1.2-1.1-1.55-1.65
			c-0.34-0.55-0.53-0.99-0.56-1.32c-0.03-0.3,0.07-0.54,0.29-0.7s0.44-0.25,0.66-0.25h1.81c0.17,0,0.29,0.02,0.39,0.06
			c0.1,0.04,0.23,0.16,0.39,0.35c0.36,0.38,0.76,0.77,1.2,1.15s0.98,0.7,1.63,0.95c0.64,0.25,1.45,0.37,2.41,0.37
			c1.4,0,2.56-0.27,3.46-0.8c0.91-0.54,1.36-1.33,1.36-2.37c0-0.69-0.19-1.24-0.56-1.65s-1.03-0.78-1.98-1.11
			c-0.95-0.33-2.25-0.67-3.9-1.03c-1.65-0.38-2.96-0.86-3.92-1.42c-0.96-0.56-1.65-1.24-2.06-2.02s-0.62-1.67-0.62-2.66
			c0-1.02,0.3-2,0.91-2.95c0.6-0.95,1.49-1.72,2.66-2.33s2.63-0.91,4.39-0.91c1.43,0,2.65,0.18,3.67,0.54s1.86,0.8,2.51,1.34
			c0.66,0.54,1.15,1.06,1.48,1.59s0.51,0.96,0.54,1.32c0.03,0.28-0.06,0.5-0.25,0.68s-0.41,0.27-0.66,0.27h-1.73
			c-0.19,0-0.35-0.04-0.47-0.12c-0.12-0.08-0.24-0.18-0.35-0.29c-0.28-0.36-0.6-0.71-0.97-1.07s-0.85-0.65-1.44-0.89
			c-0.59-0.23-1.37-0.35-2.33-0.35c-1.38,0-2.41,0.29-3.09,0.87c-0.69,0.58-1.03,1.31-1.03,2.18c0,0.52,0.15,0.99,0.45,1.4
			c0.3,0.41,0.88,0.78,1.73,1.11c0.85,0.33,2.12,0.69,3.79,1.07c1.81,0.36,3.24,0.84,4.29,1.44c1.04,0.6,1.79,1.31,2.23,2.1
			c0.44,0.8,0.66,1.72,0.66,2.76c0,1.15-0.34,2.21-1.01,3.17c-0.67,0.96-1.66,1.72-2.97,2.29
			C199.31,244.2,197.69,244.48,195.77,244.48z"/>
		<path class="st2" d="M210.36,244.07c-0.28,0-0.5-0.09-0.68-0.27s-0.27-0.41-0.27-0.68v-27.37c0-0.27,0.09-0.5,0.27-0.68
			c0.18-0.18,0.41-0.27,0.68-0.27h2.06c0.3,0,0.54,0.09,0.7,0.27c0.17,0.18,0.25,0.41,0.25,0.68v9.6c0.74-0.93,1.65-1.69,2.72-2.27
			c1.07-0.58,2.43-0.87,4.08-0.87c1.79,0,3.3,0.39,4.55,1.17c1.25,0.78,2.2,1.87,2.84,3.26c0.65,1.39,0.97,3,0.97,4.84v11.62
			c0,0.28-0.08,0.5-0.25,0.68s-0.4,0.27-0.7,0.27h-2.06c-0.28,0-0.5-0.09-0.68-0.27s-0.27-0.41-0.27-0.68v-11.42
			c0-1.92-0.47-3.43-1.4-4.51c-0.94-1.08-2.31-1.63-4.12-1.63c-1.7,0-3.08,0.54-4.12,1.63c-1.04,1.09-1.57,2.59-1.57,4.51v11.42
			c0,0.28-0.08,0.5-0.25,0.68s-0.4,0.27-0.7,0.27H210.36z"/>
	</g>
</g>
</svg>
