<?xml version="1.0" encoding="UTF-8"?>
<svg id="Layer_1" xmlns="http://www.w3.org/2000/svg" viewBox="0 0 32 660.2">
    <defs>
        <style>
            .cls-1 {
                fill: #ffc70e;
            }

            .cls-2 {
                fill: #5e6160;
            }

            .cls-3 {
                fill: #5e6060;
            }
        </style>
    </defs>
    <polygon class="cls-3"
        points="16 15.4 1 30.9 5.5 30.9 5.5 44.6 13 44.6 13 34.3 19 34.3 19 44.6 26.5 44.6 26.5 30.9 31 30.9 16 15.4" />
    <polygon class="cls-1"
        points="16 226.6 1 242 5.5 242 5.5 255.7 13 255.7 13 245.4 19 245.4 19 255.7 26.5 255.7 26.5 242 31 242 16 226.6" />
    <g>
        <path class="cls-2"
            d="m12.1,79.8l1.4-3.4c.1-.3.2-.6.2-.7,0-.2-.2-.3-.4-.4s-.5-.1-.6,0c-.2.1-.3.3-.4.6l-1.4,3.4c-.1.2-.1.4,0,.6s.2.3.4.4.4.1.6,0,.2-.3.2-.5Z" />
        <path class="cls-2"
            d="m20.8,82.9c-.3-.1-.5-.1-.6,0s-.3.3-.4.6l-1.5,3.5c-.1.2-.1.4,0,.6s.2.3.4.4c.2.1.4.1.6,0s.3-.2.4-.4l1.5-3.4c.1-.3.2-.5.2-.7-.2-.3-.3-.5-.6-.6Z" />
        <path class="cls-2"
            d="m30.2,81.7l-14.4-14.5c-.4-.4-1-.6-1.6-.6l-10.7.5c-1.1,0-2,.9-2,2l-.5,10.7c0,.6.2,1.2.6,1.6l14.5,14.5c1,1,2.6,1,3.7,0l10.5-10.5c1-1.1,1-2.7-.1-3.7Zm-24.1-10c-.7.7-1.8.7-2.5,0s-.7-1.8,0-2.5c.7-.7,1.8-.7,2.5,0,.7.7.7,1.8,0,2.5Zm2.6,8.7c-.3-.7-.2-1.6.2-2.5l1.1-2.6c.4-1,.9-1.6,1.6-1.9.7-.3,1.5-.3,2.4.1s1.5.9,1.8,1.6c.2.7.2,1.5-.2,2.5l-1.1,2.6c-.4.9-.9,1.5-1.6,1.9-.7.3-1.5.3-2.4-.1-1-.3-1.5-.8-1.8-1.6Zm4.6,6.4c-.3.4-.9.5-1.4.3-.7-.3-1-1.2-.5-1.9l7.5-9c.3-.4.9-.5,1.4-.3.7.3,1,1.2.5,1.9l-7.5,9Zm9.7-1.4l-1.1,2.6c-.4.9-.9,1.5-1.6,1.9s-1.5.3-2.4-.1-1.4-.9-1.7-1.7-.2-1.6.2-2.5l1.1-2.6c.4-1,.9-1.6,1.6-1.9s1.5-.3,2.4.1,1.5.9,1.7,1.6c.3.8.2,1.7-.2,2.6Z" />
    </g>
    <path class="cls-2"
        d="m1.3,182.8v16.8c0,2,1.6,3.6,3.6,3.6h22.8c2,0,3.6-1.6,3.6-3.6v-16.8H1.3Zm3.7,4.5h9.2c.4,0,.8.3.8.8,0,.4-.3.8-.8.8H5c-.4,0-.8-.3-.8-.8.1-.5.4-.8.8-.8Zm12.7,10.4H5c-.4,0-.8-.3-.8-.8,0-.4.3-.8.8-.8h12.7c.4,0,.8.3.8.8s-.3.8-.8.8Zm0-4.4H5c-.4,0-.8-.3-.8-.8s.3-.8.8-.8h12.7c.4,0,.8.3.8.8s-.3.8-.8.8Zm10.2-6.9c0,.2-.2.4-.4.4h-.7l.1.4c.1.4.2.7.2,1.1v.3h.3c.2,0,.4.2.4.4s-.2.4-.4.4h-.3v.3c-.2,1.8-1.1,2.6-2.8,2.6h-.6l3.1,4.6c.1.1.1.3,0,.4-.1.1-.2.2-.4.2h-.6c-.1,0-.3-.1-.3-.2l-2.7-4.1c-.3-.5-.5-1.1-.5-1.7,0-.2.2-.4.4-.4h1.3c.5,0,.9-.1,1.2-.4.2-.2.4-.6.5-1.1v-.3h-3c-.2,0-.4-.2-.4-.4s.2-.4.4-.4h3v-.3c-.1-.5-.2-.9-.4-1.1-.3-.2-.7-.4-1.2-.4h-1.3c-.2,0-.4-.2-.4-.4v-.3c0-.2.2-.4.4-.4h4.8c.2,0,.4.2.4.4-.1.1-.1.4-.1.4Z" />
    <path class="cls-1"
        d="m1.3,393.5v16.8c0,2,1.6,3.6,3.6,3.6h22.8c2,0,3.6-1.6,3.6-3.6v-16.8H1.3Zm3.7,4.5h9.2c.4,0,.8.3.8.8s-.3.8-.8.8H5c-.4,0-.8-.3-.8-.8s.4-.8.8-.8Zm12.7,10.4H5c-.4,0-.8-.3-.8-.8,0-.4.3-.8.8-.8h12.7c.4,0,.8.3.8.8,0,.4-.3.8-.8.8Zm0-4.4H5c-.4,0-.8-.3-.8-.8,0-.4.3-.8.8-.8h12.7c.4,0,.8.3.8.8,0,.4-.3.8-.8.8Zm10.2-6.9c0,.2-.2.4-.4.4h-.7l.1.4c.1.4.2.7.2,1.1v.3h.3c.2,0,.4.2.4.4s-.2.4-.4.4h-.3v.3c-.2,1.8-1.1,2.6-2.8,2.6h-.6l3,4.6c.1.1.1.3,0,.4s-.2.2-.4.2h-.6c-.1,0-.3-.1-.3-.2l-2.7-4c-.3-.5-.5-1.1-.5-1.7,0-.2.2-.4.4-.4h1.4c.5,0,.9-.1,1.2-.4.2-.2.4-.6.5-1.1v-.3h-3c-.2,0-.4-.2-.4-.4s.2-.4.4-.4h3v-.3c0-.5-.2-.9-.5-1.1s-.7-.4-1.2-.4h-1.3c-.2,0-.4-.2-.4-.4v-.3c0-.2.2-.4.4-.4h4.8c.2,0,.4.2.4.4,0,0,0,.3,0,.3Z" />
    <g>
        <path class="cls-1"
            d="m12.1,290.8l1.4-3.4c.1-.3.2-.5.2-.7s-.2-.3-.4-.4c-.3-.1-.5-.1-.6,0-.2.1-.3.3-.4.6l-1.4,3.4c-.1.2-.1.4,0,.6s.2.3.4.4.4.1.5,0c.1-.2.3-.3.3-.5Z" />
        <path class="cls-1"
            d="m30.2,292.6l-14.5-14.5c-.4-.4-1-.6-1.6-.6l-10.6.5c-1.1,0-2,.9-2,2l-.5,10.8c0,.6.2,1.1.6,1.6l14.5,14.5c1,1,2.6,1,3.7,0l10.5-10.5c1-1.1,1-2.8-.1-3.8Zm-24.1-10c-.7.7-1.8.7-2.5,0s-.7-1.8,0-2.5c.7-.7,1.8-.7,2.5,0s.7,1.8,0,2.5Zm2.6,8.8c-.3-.7-.2-1.6.2-2.5l1.1-2.5c.4-1,.9-1.6,1.6-1.9.7-.3,1.5-.3,2.4.1s1.5.9,1.8,1.6c.2.7.2,1.5-.2,2.5l-1.1,2.5c-.4.9-.9,1.5-1.6,1.9-.7.3-1.5.3-2.4-.1-1-.3-1.5-.9-1.8-1.6Zm3.2,6.6c-.7-.3-1-1.2-.5-1.8l7.5-9c.3-.4.9-.5,1.4-.3h0c.7.3,1,1.2.5,1.8l-7.5,9c-.4.4-.9.5-1.4.3Zm11.1-1.6l-1.1,2.6c-.4.9-.9,1.5-1.6,1.8s-1.5.3-2.4-.1-1.4-.9-1.7-1.7c-.3-.7-.2-1.6.2-2.5l1.1-2.6c.4-1,.9-1.6,1.6-1.9s1.5-.3,2.4.1,1.5.9,1.7,1.6c.3.9.2,1.7-.2,2.7Z" />
        <path class="cls-1"
            d="m20.8,293.9c-.3-.1-.5-.1-.6,0-.2.1-.3.3-.4.6l-1.5,3.4c-.1.2-.1.4,0,.6s.2.3.4.4c.2.1.4.1.5,0,.2-.1.3-.2.4-.4l1.5-3.4c.1-.3.2-.5.2-.7-.1-.3-.2-.4-.5-.5Z" />
    </g>
    <g>
        <path class="cls-2"
            d="m25.3,126.9h-14c-1.9,0-3.5,1.5-3.5,3.4h13.7c2.4,0,4.3,1.9,4.3,4.3v17.5c1.8-.1,3.3-1.7,3.3-3.5v-18.2c-.2-1.9-1.8-3.5-3.8-3.5Z" />
        <path class="cls-2" d="m8.6,152.3h10.1v-2.8c0-2.8-2.3-5.1-5.1-5.1s-5.1,2.3-5.1,5.1c.1,0,.1,2.8.1,2.8Z" />
        <path class="cls-2"
            d="m24.3,135.2c0-2-1.6-3.6-3.5-3.6H6.7c-.6,0-1.2.2-1.7.5-1.1.6-1.8,1.8-1.8,3.1v18.1c0,2,1.6,3.6,3.5,3.6h14.1c1.3,0,2.5-.7,3.1-1.8.3-.5.5-1.1.5-1.7-.1-.1-.1-18.2-.1-18.2Zm-17.3,14.3c0-2.7,1.5-4.9,3.8-6-1.5-1.1-2.3-3-1.9-5,.4-1.8,1.8-3.2,3.6-3.6,3.2-.7,6,1.7,6,4.8,0,1.6-.8,3-2,3.9,2.2,1.1,3.8,3.4,3.8,6v3.6c0,.4-.4.8-.8.8H7.8c-.5,0-.8-.4-.8-.8v-3.7Z" />
        <path class="cls-2"
            d="m13.7,142.8c1.8,0,3.2-1.5,3.2-3.2,0-1.8-1.5-3.2-3.2-3.2s-3.2,1.5-3.2,3.2c-.1,1.7,1.4,3.2,3.2,3.2Z" />
    </g>
    <g>
        <path class="cls-1"
            d="m25.3,338.8h-14c-1.9,0-3.5,1.5-3.5,3.4h13.7c2.4,0,4.3,1.9,4.3,4.3v17.5c1.8-.2,3.3-1.7,3.3-3.5v-18.2c-.2-1.9-1.8-3.5-3.8-3.5Z" />
        <path class="cls-1" d="m8.6,364.2h10.1v-2.8c0-2.8-2.3-5.1-5.1-5.1s-5.1,2.3-5.1,5.1c.1,0,.1,2.8.1,2.8Z" />
        <path class="cls-1"
            d="m24.3,347.1c0-2-1.6-3.5-3.5-3.5H6.7c-.6,0-1.2.2-1.7.5-1.1.6-1.8,1.8-1.8,3.1v18.2c0,2,1.6,3.5,3.6,3.5h14.1c1.3,0,2.5-.7,3.1-1.8.3-.5.5-1.1.5-1.7l-.2-18.3h0Zm-17.3,14.3c0-2.6,1.6-4.9,3.8-6-1.5-1.1-2.3-3-1.9-5,.4-1.8,1.8-3.2,3.6-3.6,3.2-.7,6,1.7,6,4.8,0,1.6-.8,3-2,3.9,2.2,1.1,3.8,3.4,3.8,6v3.6c0,.4-.4.8-.8.8H7.8c-.4,0-.8-.4-.8-.8v-3.7h0Z" />
        <path class="cls-1"
            d="m13.7,354.7c1.8,0,3.2-1.5,3.2-3.2s-1.5-3.2-3.2-3.2c-1.8,0-3.2,1.5-3.2,3.2s1.4,3.2,3.2,3.2Z" />
    </g>
    <g>
        <path class="cls-2"
            d="m27.4,472.8H5.2c-1.9-.2-3.8-1.9-3.8-4.6v-14.1h30v14.4c0,1.9-1.2,3.4-2.9,4.1-.4,0-.8.1-1.1.2Z" />
        <path class="cls-2"
            d="m1.3,452v-4.6c0-2.3,1.5-4.1,3.7-4.4.4-.1.9-.1,1.4-.1v4.1c0,1.6,1,2.8,2.5,3.1,1.8.4,3.6-1,3.7-2.8.1-1.3,0-2.7,0-4v-.4h7.3v4.1c0,1.6.9,2.8,2.4,3.1,2,.5,3.8-1,3.8-3.1v-4.1c1.3-.1,2.5.1,3.5,1s1.6,2,1.6,3.3v4.8c-9.9,0-19.9,0-29.9,0Z" />
        <path class="cls-2"
            d="m22,443.9v-3.2c0-.5.3-.9.8-1,.4-.1.9.1,1.1.5.1.2.2.4.2.6v6.1c0,.7-.4,1.1-1,1.1s-1-.4-1-1.1c-.1-1-.1-2-.1-3h0Z" />
        <path class="cls-2"
            d="m10.6,443.9v3.2c0,.5-.4.9-.8,1-.5.1-1-.1-1.2-.6-.1-.2-.1-.3-.1-.5v-6.1c0-.6.3-.9.7-1.1.4-.1.9,0,1.1.4.1.2.2.5.2.7.1,1,.1,2,.1,3h0Z" />
    </g>
    <g>
        <path class="cls-1"
            d="m27.4,533.8H5.2c-1.9-.2-3.8-1.9-3.8-4.6v-14.1h30v14.4c0,1.9-1.2,3.4-2.9,4.1-.4,0-.8.1-1.1.2Z" />
        <path class="cls-1"
            d="m1.3,513v-4.6c0-2.3,1.5-4.1,3.7-4.4.4-.1.9-.1,1.4-.1v4.1c0,1.6,1,2.8,2.5,3.1,1.8.4,3.6-1,3.7-2.8.1-1.3,0-2.7,0-4v-.4h7.3v4.1c0,1.6.9,2.8,2.4,3.1,2,.5,3.8-1,3.8-3.1v-4.1c1.3-.1,2.5.1,3.5,1s1.6,2,1.6,3.3v4.8H1.3Z" />
        <path class="cls-1"
            d="m22,504.9v-3.2c0-.5.3-.9.8-1,.4-.1.9.1,1.1.5.1.2.2.4.2.6v6.1c0,.7-.4,1.1-1,1.1s-1-.4-1-1.1c-.1-1-.1-2-.1-3h0Z" />
        <path class="cls-1"
            d="m10.6,504.9v3.2c0,.5-.4.9-.8,1-.5.1-1-.1-1.2-.6-.1-.2-.1-.3-.1-.5v-6.1c0-.6.3-.9.7-1.1.4-.1.9,0,1.1.4.1.2.2.5.2.7.1,1,.1,2,.1,3h0Z" />
    </g>
    <g>
        <path class="cls-2"
            d="m16.4,571c-4.3,0-7.8,3.5-7.8,7.8s3.5,7.8,7.8,7.8,7.8-3.5,7.8-7.8-3.5-7.8-7.8-7.8Zm4,8.8c-.3,0-.6-.2-.8-.5h-2.6v2.6c.3.2.5.5.5.8,0,.5-.4.9-.9.9s-.9-.4-.9-.9c0-.3.2-.6.5-.8v-2.6h-2.6c-.2.3-.5.5-.8.5-.5,0-.9-.4-.9-.9s.4-.9.9-.9c.3,0,.6.2.8.5h2.6v-2.6c-.3-.2-.5-.5-.5-.8,0-.5.4-.9.9-.9s.9.4.9.9c0,.3-.2.6-.5.8v2.6h2.6c.2-.3.5-.5.8-.5.5,0,.9.4.9.9,0,.4-.4.9-.9.9Z" />
        <path class="cls-2"
            d="m16,563.2c-8.6,0-15.6,7-15.6,15.6s7,15.6,15.6,15.6,15.6-7,15.6-15.6-7-15.6-15.6-15.6Zm7.7,3.8c1.6,1.1,3.1,2.5,4.1,4.1l-2.2,1.3c-.8-1.3-1.9-2.4-3.2-3.2l1.3-2.2Zm-8.4-2.2v2.5c-1.6.1-3,.5-4.4,1.2l-1.3-2.2c1.7-.9,3.6-1.4,5.7-1.5Zm-11.9,7.6l2.2,1.3c-.7,1.3-1.1,2.8-1.2,4.4H1.9c.1-2.1.7-4,1.5-5.7Zm4.9,18.2c-1.6-1.1-3.1-2.5-4.1-4.1l2.2-1.3c.8,1.3,1.9,2.4,3.2,3.2l-1.3,2.2Zm8.4,2.3v-2.6c1.6-.1,3.1-.5,4.4-1.2l1.3,2.2c-1.7,1-3.6,1.5-5.7,1.6Zm-.7-4c-5.6,0-10.1-4.5-10.1-10.1s4.5-10.1,10.1-10.1,10.1,4.5,10.1,10.1-4.5,10.1-10.1,10.1Zm10.4-5c.7-1.3,1.1-2.8,1.2-4.4h2.5c-.1,2-.6,3.9-1.5,5.7l-2.2-1.3Z" />
    </g>
    <g>
        <path class="cls-1"
            d="m16.4,636.8c-4.3,0-7.8,3.5-7.8,7.8s3.5,7.8,7.8,7.8,7.8-3.5,7.8-7.8-3.5-7.8-7.8-7.8Zm4,8.8c-.3,0-.6-.2-.8-.5h-2.6v2.6c.3.2.5.5.5.8,0,.5-.4.9-.9.9s-.9-.4-.9-.9c0-.3.2-.6.5-.8v-2.6h-2.6c-.2.3-.5.5-.8.5-.5,0-.9-.4-.9-.9s.4-.9.9-.9c.3,0,.6.2.8.5h2.6v-2.6c-.3-.2-.5-.5-.5-.8,0-.5.4-.9.9-.9s.9.4.9.9c0,.3-.2.6-.5.8v2.6h2.6c.2-.3.5-.5.8-.5.5,0,.9.4.9.9s-.4.9-.9.9Z" />
        <path class="cls-1"
            d="m16,629.1c-8.6,0-15.6,7-15.6,15.6s7,15.6,15.6,15.6,15.6-7,15.6-15.6-7-15.6-15.6-15.6Zm7.7,3.7c1.6,1.1,3.1,2.5,4.1,4.1l-2.2,1.3c-.8-1.3-1.9-2.4-3.2-3.2l1.3-2.2Zm-8.4-2.2v2.5c-1.6.1-3,.5-4.4,1.2l-1.3-2.2c1.7-.9,3.6-1.4,5.7-1.5Zm-11.9,7.6l2.2,1.3c-.7,1.3-1.1,2.8-1.2,4.4H1.9c.1-2,.7-4,1.5-5.7Zm4.9,18.3c-1.6-1.1-3.1-2.5-4.1-4.1l2.2-1.3c.8,1.3,1.9,2.4,3.2,3.2l-1.3,2.2Zm8.4,2.2v-2.6c1.6-.1,3.1-.5,4.4-1.2l1.3,2.2c-1.7,1-3.6,1.5-5.7,1.6Zm-.7-4c-5.6,0-10.1-4.5-10.1-10.1s4.5-10.1,10.1-10.1,10.1,4.5,10.1,10.1-4.5,10.1-10.1,10.1Zm10.4-4.9c.7-1.3,1.1-2.8,1.2-4.4h2.5c-.1,2-.6,3.9-1.5,5.7l-2.2-1.3Z" />
    </g>
</svg>